name C:\Users\u0101727\Documents\MyRepositories\predictivesimulations\OpenSimModel\subject1\EMG\EMG_gait_61.mot
datacolumns 25
datarows 20
range 2.07100000 2.09000000
endheader
time	HamL_r	TA_r	PerL_r	GL_r	HamM_r	Sol_r	VL_r	VM_r	PerB_l	TA_l	PerL_l	GL_l	GM_l	Sol_l	VL_l	VM_l	AddL_l	RF_l	TFL_l	GluMed_l	HamL_l	HamM_l	GluMed_r	RF_r	
          2.07100000	          0.00403661	          0.00337570	          0.00352886	          0.00338544	          0.00374412	          0.01386768	          0.00587063	          0.00433508	          0.04876898	          0.00805176	          0.01567764	          0.01407324	          0.05040686	          0.05738385	          0.01648411	          0.01077935	          0.00571048	          0.00498438	          0.01421531	          0.01897221	          0.00947965	          0.00422564	          0.00568716	          0.00674834	
          2.07200000	          0.00406772	          0.00333372	          0.00350962	          0.00337477	          0.00375449	          0.01372536	          0.00591024	          0.00431258	          0.04811332	          0.00809939	          0.01579638	          0.01405096	          0.05147790	          0.05741741	          0.01608754	          0.01052462	          0.00573211	          0.00490476	          0.01432977	          0.01896274	          0.00972810	          0.00423625	          0.00570901	          0.00666033	
          2.07300000	          0.00410079	          0.00329330	          0.00349168	          0.00336571	          0.00376736	          0.01358290	          0.00595119	          0.00429156	          0.04745234	          0.00814990	          0.01592441	          0.01404203	          0.05256631	          0.05745395	          0.01569078	          0.01026630	          0.00575328	          0.00482835	          0.01445428	          0.01894372	          0.00998132	          0.00425001	          0.00572966	          0.00657044	
          2.07400000	          0.00413566	          0.00325465	          0.00347525	          0.00335801	          0.00378269	          0.01344117	          0.00599343	          0.00427218	          0.04679202	          0.00820377	          0.01606232	          0.01404765	          0.05367247	          0.05749457	          0.01529510	          0.01000569	          0.00577358	          0.00475520	          0.01458883	          0.01891461	          0.01023897	          0.00426699	          0.00574927	          0.00647892	
          2.07500000	          0.00417213	          0.00321795	          0.00346046	          0.00335145	          0.00380041	          0.01330094	          0.00603686	          0.00425457	          0.04613778	          0.00826146	          0.01621064	          0.01406894	          0.05479649	          0.05754126	          0.01490163	          0.00974407	          0.00579267	          0.00468533	          0.01473326	          0.01887524	          0.01050065	          0.00428727	          0.00576801	          0.00638613	
          2.07600000	          0.00420996	          0.00318336	          0.00344743	          0.00334578	          0.00382043	          0.01316290	          0.00608131	          0.00423881	          0.04549455	          0.00832333	          0.01636993	          0.01410696	          0.05593803	          0.05759671	          0.01451138	          0.00948265	          0.00581019	          0.00461873	          0.01488729	          0.01882584	          0.01076588	          0.00431092	          0.00578600	          0.00629247	
          2.07700000	          0.00424887	          0.00315098	          0.00343622	          0.00334082	          0.00384266	          0.01302764	          0.00612656	          0.00422496	          0.04486681	          0.00838968	          0.01654075	          0.01416273	          0.05709638	          0.05766418	          0.01412527	          0.00922258	          0.00582577	          0.00455536	          0.01505058	          0.01876687	          0.01103411	          0.00433799	          0.00580331	          0.00619834	
          2.07800000	          0.00428859	          0.00312088	          0.00342687	          0.00333640	          0.00386703	          0.01289567	          0.00617236	          0.00421303	          0.04425869	          0.00846072	          0.01672369	          0.01423714	          0.05827063	          0.05774738	          0.01374412	          0.00896494	          0.00583906	          0.00449514	          0.01522271	          0.01869888	          0.01130476	          0.00436850	          0.00581995	          0.00610415	
          2.07900000	          0.00432880	          0.00309311	          0.00341939	          0.00333240	          0.00389346	          0.01276743	          0.00621847	          0.00420301	          0.04367395	          0.00853660	          0.01691920	          0.01433096	          0.05945990	          0.05785015	          0.01336869	          0.00871070	          0.00584975	          0.00443800	          0.01540328	          0.01862246	          0.01157721	          0.00440244	          0.00583592	          0.00601033	
          2.08000000	          0.00436918	          0.00306767	          0.00341374	          0.00332876	          0.00392188	          0.01264335	          0.00626462	          0.00419483	          0.04311583	          0.00861744	          0.01712751	          0.01444484	          0.06066353	          0.05797614	          0.01299966	          0.00846080	          0.00585760	          0.00438384	          0.01559189	          0.01853831	          0.01185076	          0.00443973	          0.00585115	          0.00591730	
          2.08100000	          0.00440941	          0.00304460	          0.00340990	          0.00332549	          0.00395218	          0.01252388	          0.00631055	          0.00418844	          0.04258696	          0.00870329	          0.01734868	          0.01457936	          0.06188075	          0.05812859	          0.01263768	          0.00821616	          0.00586236	          0.00433259	          0.01578807	          0.01844739	          0.01212465	          0.00448024	          0.00586551	          0.00582548	
          2.08200000	          0.00444917	          0.00302388	          0.00340777	          0.00332261	          0.00398426	          0.01240948	          0.00635599	          0.00418374	          0.04208938	          0.00879414	          0.01758253	          0.01473506	          0.06311030	          0.05831016	          0.01228329	          0.00797770	          0.00586380	          0.00428423	          0.01599123	          0.01835084	          0.01239796	          0.00452382	          0.00587884	          0.00573524	
          2.08300000	          0.00448821	          0.00300551	          0.00340725	          0.00332014	          0.00401796	          0.01230058	          0.00640070	          0.00418059	          0.04162456	          0.00888991	          0.01782870	          0.01491243	          0.06435039	          0.05852288	          0.01193693	          0.00774629	          0.00586172	          0.00423881	          0.01620061	          0.01824992	          0.01266966	          0.00457031	          0.00589089	          0.00564692	
          2.08400000	          0.00452628	          0.00298946	          0.00340820	          0.00331809	          0.00405309	          0.01219753	          0.00644444	          0.00417889	          0.04119373	          0.00899046	          0.01808663	          0.01511192	          0.06559892	          0.05876818	          0.01159894	          0.00752275	          0.00585602	          0.00419645	          0.01641543	          0.01814591	          0.01293874	          0.00461959	          0.00590138	          0.00556081	
          2.08500000	          0.00456310	          0.00297570	          0.00341043	          0.00331644	          0.00408944	          0.01210057	          0.00648694	          0.00417847	          0.04079817	          0.00909561	          0.01835554	          0.01533391	          0.06685365	          0.05904703	          0.01126956	          0.00730783	          0.00584671	          0.00415731	          0.01663483	          0.01804008	          0.01320424	          0.00467155	          0.00590999	          0.00547720	
          2.08600000	          0.00459842	          0.00296420	          0.00341371	          0.00331516	          0.00412674	          0.01200987	          0.00652792	          0.00417917	          0.04043936	          0.00920512	          0.01863447	          0.01557875	          0.06811214	          0.05935985	          0.01094896	          0.00710224	          0.00583386	          0.00412152	          0.01685786	          0.01793373	          0.01346523	          0.00472607	          0.00591642	          0.00539635	
          2.08700000	          0.00463196	          0.00295493	          0.00341779	          0.00331424	          0.00416469	          0.01192556	          0.00656703	          0.00418081	          0.04011887	          0.00931876	          0.01892224	          0.01584667	          0.06937174	          0.05970636	          0.01063727	          0.00690661	          0.00581757	          0.00408916	          0.01708346	          0.01782805	          0.01372074	          0.00478300	          0.00592050	          0.00531853	
          2.08800000	          0.00466344	          0.00294791	          0.00342243	          0.00331370	          0.00420293	          0.01184776	          0.00660399	          0.00418320	          0.03983810	          0.00943624	          0.01921753	          0.01613783	          0.07062933	          0.06008558	          0.01033461	          0.00672155	          0.00579795	          0.00406033	          0.01731045	          0.01772410	          0.01396968	          0.00484211	          0.00592216	          0.00524392	
          2.08900000	          0.00469257	          0.00294313	          0.00342739	          0.00331352	          0.00424109	          0.01177656	          0.00663863	          0.00418613	          0.03959821	          0.00955728	          0.01951884	          0.01645231	          0.07188123	          0.06049608	          0.01004111	          0.00654760	          0.00577511	          0.00403509	          0.01753760	          0.01762277	          0.01421082	          0.00490317	          0.00592144	          0.00517271	
          2.09000000	          0.00471905	          0.00294055	          0.00343248	          0.00331368	          0.00427878	          0.01171193	          0.00667087	          0.00418942	          0.03940012	          0.00968152	          0.01982446	          0.01679017	          0.07312324	          0.06093626	          0.00975693	          0.00638525	          0.00574914	          0.00401352	          0.01776362	          0.01752487	          0.01444288	          0.00496593	          0.00591841	          0.00510504	
